<svg width="316" height="48" viewBox="0 0 316 48" fill="none" xmlns="http://www.w3.org/2000/svg">
<g clip-path="url(#clip0_23_562)">
<path d="M160.046 23.898V1.16298H164.673V8.26767H169.282V11.1269H164.673V23.9153H160.046V23.898ZM154.033 7.3146C154.848 7.93843 155.472 8.71821 155.94 9.63662C156.39 10.5724 156.615 11.5601 156.615 12.6345C156.615 14.5579 155.922 16.2215 154.519 17.5904C153.132 18.9594 151.451 19.6525 149.476 19.6525C147.5 19.6525 145.872 18.9594 144.451 17.5904C143.03 16.2215 142.319 14.5579 142.319 12.6345C142.319 11.5601 142.562 10.5724 143.047 9.63662C143.532 8.70088 144.156 7.93843 144.953 7.3146H141.297V4.49005H147.154V0.816406H151.798V4.49005H157.655V7.3146H154.051H154.033ZM147.552 9.56731C146.981 10.4164 146.703 11.4388 146.703 12.6345C146.703 13.8301 146.998 14.8525 147.552 15.7189C148.124 16.5854 148.765 17.0186 149.476 17.0186C150.186 17.0186 150.845 16.5854 151.399 15.7189C151.954 14.8525 152.231 13.8301 152.231 12.6345C152.231 11.4388 151.954 10.4164 151.399 9.56731C150.845 8.71821 150.204 8.285 149.476 8.285C148.748 8.285 148.107 8.71821 147.552 9.56731ZM151.105 29.0966H165.678V31.9211H149.667C148.748 31.9211 147.986 31.6265 147.379 31.02C146.773 30.4308 146.461 29.5991 146.461 28.5594V21.9399H151.105V29.0792V29.0966Z" fill="white"/>
<path d="M174.098 1.37109H193.835V8.12922C193.835 8.97831 193.731 9.89672 193.523 10.8844C193.298 11.8722 193.038 12.6 192.709 13.0332H197.162V15.8577H186.28V20.8137H193.766V31.9733H189.156V23.6382H174.029V20.8137H181.636V15.8577H170.996V13.0332H188.671C188.896 12.392 189.052 11.6469 189.104 10.7978C189.174 9.96604 189.191 9.09961 189.191 8.23319V4.17831H174.098V1.37109Z" fill="white"/>
<path d="M207.353 10.0186V12.7738H222.827V15.5984H205.914C204.944 15.5984 204.182 15.2864 203.592 14.6626C203.003 14.0388 202.709 13.2417 202.709 12.2366V1.54492H222.515V4.36947H207.353V7.22868H222.411V10.0186H207.353ZM225.6 18.4922V21.3168H214.839V31.9911H210.195V21.3168H199.434V18.4922H225.6Z" fill="white"/>
<path d="M247.92 1.17969H252.495V8.87355L257.139 8.83889V11.6981H252.495V31.9551H247.92V1.17969Z" fill="white"/>
<path d="M284.621 17.2611H258.455V14.4366H266.825V7.67845H271.469V14.4366H284.621V17.2611ZM261.574 1.42285H281.346V7.5918C281.346 8.51022 281.225 9.46328 280.965 10.4683C280.722 11.4734 280.428 12.1492 280.098 12.5304H276.096C276.355 11.8893 276.529 11.1441 276.598 10.3124C276.667 9.48061 276.719 8.61419 276.719 7.73043V4.26473H261.574V1.42285ZM277.014 21.108C278.504 22.4943 279.249 24.1579 279.249 26.1506C279.249 28.1434 278.504 29.7723 277.014 31.1586C275.524 32.5275 273.722 33.2207 271.607 33.2207C269.493 33.2207 267.674 32.5275 266.184 31.1586C264.693 29.7896 263.966 28.1088 263.966 26.1506C263.966 24.1925 264.711 22.4943 266.184 21.108C267.674 19.7391 269.476 19.046 271.607 19.046C273.739 19.046 275.506 19.7391 277.014 21.108ZM269.476 23.1701C268.904 24.0366 268.61 25.0243 268.61 26.1506C268.61 27.277 268.904 28.2127 269.476 29.0618C270.065 29.8936 270.776 30.3268 271.607 30.3268C272.439 30.3268 273.15 29.9109 273.722 29.0618C274.293 28.2127 274.571 27.2423 274.571 26.1506C274.571 25.059 274.293 24.0539 273.722 23.1701C273.15 22.3037 272.439 21.8705 271.607 21.8705C270.776 21.8705 270.048 22.3037 269.476 23.1701Z" fill="white"/>
<path d="M239.896 5.02645V8.02428C239.896 10.9528 240.606 13.4654 242.062 15.5275C243.223 17.1911 245.406 18.716 247.035 19.2358L244.765 21.4019C243.639 21.09 242.01 20.1196 240.814 19.1319C239.445 17.9882 238.042 16.7579 237.557 15.3369C237.071 16.7405 235.668 17.9708 234.299 19.1319C233.103 20.1196 231.474 21.09 230.348 21.4019L228.061 19.2358C229.707 18.716 231.873 17.1911 233.034 15.5275C234.489 13.4481 235.2 10.9528 235.2 8.02428V5.02645H229.793V2.18457H245.181V5.02645H239.861" fill="white"/>
<path d="M310.078 8.54431H314.722V11.3689H310.078V31.9551H305.469V1.17969H310.078V8.54431Z" fill="white"/>
<path d="M296.994 1.85547V8.02442C296.994 10.9529 297.704 13.4656 299.16 15.5277C300.338 17.1912 302.504 18.7161 304.133 19.236L301.863 21.402C300.737 21.0901 299.108 20.1197 297.912 19.132C296.543 17.9883 295.139 16.758 294.654 15.3371C294.169 16.7407 292.765 17.971 291.396 19.132C290.218 20.1197 288.572 21.0901 287.446 21.402L285.158 19.236C286.787 18.7161 288.971 17.1912 290.132 15.5277C291.587 13.4482 292.298 10.9529 292.298 8.02442V1.85547H296.976H296.994Z" fill="white"/>
<path d="M144.711 45.1616V35.9082H146.028V45.1616H144.711ZM149.32 35.9082H150.949L147.553 40.2057L151.053 45.1616H149.372L146.063 40.223L149.303 35.9082H149.32Z" fill="white"/>
<path d="M155.975 41.9207C155.975 43.6882 155.403 44.3987 154.45 44.3987C153.41 44.3987 152.89 43.7056 152.89 41.6608C152.89 39.9626 153.323 39.2001 154.398 39.2001C155.368 39.2001 155.975 39.8413 155.975 41.9207ZM157.361 41.8687C157.361 39.8413 156.391 38.2471 154.398 38.2471C152.63 38.2471 151.504 39.616 151.504 41.7994C151.504 43.9828 152.613 45.3691 154.415 45.3691C156.217 45.3691 157.344 44.0001 157.344 41.8687H157.361Z" fill="white"/>
<path d="M162.162 39.5116C162.041 39.4769 161.954 39.4422 161.815 39.4422C161.053 39.4422 160.412 40.0661 160.412 40.8112V45.1433H159.164V40.2047C159.164 39.3903 159.078 38.9397 158.904 38.5238L160.1 38.2119C160.221 38.4718 160.325 38.9051 160.325 39.2516V39.3729C160.862 38.5931 161.434 38.2119 162.145 38.2119C162.301 38.2119 162.457 38.2292 162.561 38.2812L162.127 39.5116H162.162Z" fill="white"/>
<path d="M167.305 41.1404H164.515C164.515 39.9274 164.983 39.1477 165.919 39.1477C166.352 39.1477 166.664 39.3556 166.889 39.6155C167.166 39.9448 167.305 40.482 167.305 41.1231V41.1404ZM168.587 42.0588V41.8509C168.587 40.3087 168.362 39.5462 167.773 38.9397C167.305 38.4545 166.699 38.2119 165.953 38.2119C165.122 38.2119 164.463 38.5065 163.926 39.1477C163.354 39.8408 163.129 40.5859 163.129 41.7469C163.129 43.9477 164.273 45.2993 166.127 45.2993C167.011 45.2993 167.79 45.022 168.449 44.4329L167.981 43.6877C167.496 44.1209 166.959 44.3289 166.317 44.3289C165.676 44.3289 165.122 44.069 164.775 43.5318C164.567 43.2025 164.498 42.7693 164.498 42.1801V42.0242H168.605L168.587 42.0588Z" fill="white"/>
<path d="M173.824 41.8502L173.789 43.5657C173.477 44.1029 172.94 44.4495 172.385 44.4495C171.692 44.4495 171.311 44.0162 171.311 43.2884C171.311 42.8379 171.415 42.5953 171.657 42.3007C171.935 41.9888 172.489 41.8155 173.425 41.8155C173.529 41.8155 173.633 41.8155 173.824 41.8502ZM175.574 44.6054C175.054 44.2762 175.019 43.9123 175.019 42.9765C175.019 41.9888 175.071 40.9664 175.071 40.4812C175.071 39.8227 175.054 39.5975 174.95 39.3029C174.69 38.5924 173.979 38.2285 172.992 38.2285C171.692 38.2285 170.826 38.7484 170.167 39.1123L170.739 39.996C171.294 39.5801 172.108 39.2336 172.818 39.2336C173.754 39.2336 173.875 39.7708 173.875 40.5679V41.0184C173.702 41.0184 173.564 41.0184 173.408 41.0184C171.224 41.0184 169.977 41.8502 169.977 43.4097C169.977 44.7094 170.808 45.3852 172.16 45.3852C173.321 45.3852 173.893 44.7094 174.066 44.5014C174.222 44.9693 174.551 45.2986 174.967 45.4718L175.591 44.6401L175.574 44.6054Z" fill="white"/>
<path d="M180.357 45.1616V35.9082H181.674V45.1616H180.357Z" fill="white"/>
<path d="M187.774 45.1599V40.6199C187.774 40.0134 187.722 39.8054 187.566 39.5801C187.427 39.4069 187.184 39.3029 186.873 39.3029C186.387 39.3029 185.66 39.6841 185.209 40.1693V45.1599H183.979V40.152C183.979 39.3549 183.909 39.043 183.719 38.5578L184.897 38.2285C185.053 38.5578 185.122 38.8523 185.122 39.2682C185.504 38.939 185.712 38.7657 185.989 38.6097C186.387 38.3845 186.821 38.2805 187.236 38.2805C187.947 38.2805 188.588 38.6617 188.831 39.2336C188.935 39.4762 188.987 39.7708 188.987 40.0827V45.1773H187.756L187.774 45.1599Z" fill="white"/>
<path d="M193.628 45.2141H192.467L190.059 38.456L191.324 38.248L192.658 42.3202C192.797 42.7708 192.952 43.308 193.056 43.7758H193.091C193.16 43.3773 193.299 42.8401 193.49 42.3029L194.772 38.4387H196.072L193.611 45.2314L193.628 45.2141Z" fill="white"/>
<path d="M200.805 41.1404H198.015C198.015 39.9274 198.483 39.1477 199.419 39.1477C199.852 39.1477 200.164 39.3556 200.389 39.6155C200.666 39.9448 200.805 40.482 200.805 41.1231V41.1404ZM202.087 42.0588V41.8509C202.087 40.3087 201.862 39.5462 201.273 38.9397C200.805 38.4545 200.199 38.2119 199.453 38.2119C198.622 38.2119 197.963 38.5065 197.426 39.1477C196.854 39.8408 196.629 40.5859 196.629 41.7469C196.629 43.9477 197.773 45.2993 199.644 45.2993C200.51 45.2993 201.308 45.022 201.966 44.4329L201.498 43.6877C201.013 44.1209 200.476 44.3289 199.852 44.3289C199.228 44.3289 198.656 44.069 198.31 43.5318C198.102 43.2025 198.033 42.7693 198.033 42.1801V42.0242H202.139L202.087 42.0588Z" fill="white"/>
<path d="M205.761 45.3515C204.946 45.3515 204.028 45.0916 203.248 44.641L203.699 43.7573C204.34 44.1212 205.102 44.4331 205.865 44.4331C206.627 44.4331 207.112 43.9999 207.112 43.3414C207.112 42.7695 206.766 42.423 205.986 42.2843L205.172 42.1284C204.114 41.9204 203.525 41.262 203.525 40.2569C203.525 39.0266 204.513 38.1602 205.969 38.1602C206.783 38.1602 207.528 38.3854 208.083 38.7147L207.667 39.5811C207.043 39.2692 206.558 39.0959 206.021 39.0959C205.31 39.0959 204.86 39.4945 204.86 40.1009C204.86 40.5861 205.102 40.8461 205.813 41.0194L206.696 41.2273C207.927 41.5046 208.447 42.215 208.447 43.1161C208.447 44.4677 207.372 45.3688 205.795 45.3688L205.761 45.3515Z" fill="white"/>
<path d="M212.657 39.304H211.323V43.3589C211.323 44.1907 211.531 44.4506 212.189 44.4506C212.414 44.4506 212.605 44.4159 212.83 44.312L212.969 45.0571C212.588 45.2477 212.189 45.3343 211.756 45.3343C211.323 45.3343 210.82 45.1957 210.612 44.9878C210.335 44.7278 210.11 44.6065 210.11 43.6188V39.2867H209.312V38.4203H210.11C210.11 37.9004 210.11 37.2073 210.196 36.7047L211.479 36.4102C211.427 36.8954 211.357 37.7445 211.357 38.4203H213.003L212.674 39.2867L212.657 39.304Z" fill="white"/>
<path d="M221.633 45.1599V40.3426C221.633 39.5801 221.391 39.3029 220.836 39.3029C220.212 39.3029 219.779 39.7014 219.259 40.2213V45.1599H218.046V40.3599C218.046 39.6148 217.838 39.3202 217.214 39.3202C216.747 39.3202 216.244 39.5455 215.672 40.1V45.1426H214.442V40.204C214.442 39.2509 214.39 38.991 214.199 38.5231L215.36 38.2458C215.499 38.4711 215.586 38.8177 215.586 39.1816C216.157 38.5751 216.85 38.2285 217.474 38.2285C218.098 38.2285 218.739 38.5751 219.069 39.3029C219.744 38.5924 220.437 38.2285 221.131 38.2285C222.188 38.2285 222.846 38.887 222.846 40.1173V45.1426H221.616L221.633 45.1599Z" fill="white"/>
<path d="M228.752 41.1404H225.962C225.962 39.9274 226.43 39.1477 227.366 39.1477C227.799 39.1477 228.111 39.3556 228.336 39.6155C228.613 39.9448 228.752 40.482 228.752 41.1231V41.1404ZM230.034 42.0588V41.8509C230.034 40.3087 229.809 39.5462 229.22 38.9397C228.752 38.4545 228.146 38.2119 227.383 38.2119C226.551 38.2119 225.893 38.5065 225.356 39.1477C224.784 39.8408 224.559 40.5859 224.559 41.7469C224.559 43.9477 225.702 45.2993 227.574 45.2993C228.44 45.2993 229.237 45.022 229.896 44.4329L229.428 43.6877C228.943 44.1209 228.406 44.3289 227.782 44.3289C227.158 44.3289 226.586 44.069 226.239 43.5318C226.032 43.2025 225.962 42.7693 225.962 42.1801V42.0242H230.069L230.034 42.0588Z" fill="white"/>
<path d="M235.651 45.1599V40.6199C235.651 40.0134 235.599 39.8054 235.443 39.5801C235.304 39.4069 235.079 39.3029 234.767 39.3029C234.282 39.3029 233.554 39.6841 233.104 40.1693V45.1599H231.873V40.152C231.873 39.3549 231.804 39.043 231.613 38.5578L232.792 38.2285C232.948 38.5578 233.017 38.8523 233.017 39.2682C233.398 38.939 233.606 38.7657 233.883 38.6097C234.282 38.3845 234.715 38.2805 235.131 38.2805C235.841 38.2805 236.483 38.6617 236.725 39.2336C236.829 39.4762 236.881 39.7708 236.881 40.0827V45.1773H235.651V45.1599Z" fill="white"/>
<path d="M241.596 39.304H240.262V43.3589C240.262 44.1907 240.47 44.4506 241.146 44.4506C241.371 44.4506 241.561 44.4159 241.769 44.312L241.925 45.0571C241.544 45.2477 241.146 45.3343 240.695 45.3343C240.245 45.3343 239.759 45.1957 239.551 44.9878C239.274 44.7278 239.049 44.6065 239.049 43.6188V39.2867H238.234V38.4203H239.049C239.049 37.9004 239.049 37.2073 239.118 36.7047L240.4 36.4102C240.348 36.8954 240.279 37.7445 240.279 38.4203H241.925L241.596 39.2867V39.304Z" fill="white"/>
<path d="M249.843 45.3004C248.63 45.3004 247.676 44.7979 246.966 43.9142C246.308 43.0651 245.961 41.956 245.961 40.6044C245.961 39.53 246.169 38.5943 246.567 37.8492C247.261 36.5322 248.474 35.7178 249.895 35.7178C250.761 35.7178 251.593 35.9777 252.165 36.4456L251.541 37.2947C251.038 36.9134 250.518 36.7575 249.895 36.7575C248.976 36.7575 248.266 37.2254 247.832 38.0918C247.538 38.6809 247.399 39.4607 247.399 40.5698C247.399 41.6095 247.503 42.216 247.728 42.7532C248.162 43.7755 249.011 44.2607 249.998 44.2607C250.709 44.2607 251.211 44.0701 251.697 43.6889L252.338 44.538C251.627 45.0405 250.778 45.3004 249.843 45.3004Z" fill="white"/>
<path d="M257.78 41.9217C257.78 43.6892 257.208 44.3997 256.255 44.3997C255.215 44.3997 254.678 43.7065 254.678 41.6618C254.678 39.9636 255.128 39.2011 256.203 39.2011C257.173 39.2011 257.78 39.8423 257.78 41.9217ZM259.166 41.8697C259.166 39.8423 258.195 38.248 256.22 38.248C254.435 38.248 253.326 39.617 253.326 41.8004C253.326 43.9838 254.435 45.3701 256.237 45.3701C258.04 45.3701 259.166 44.0011 259.166 41.8697Z" fill="white"/>
<path d="M263.965 39.5116C263.844 39.4769 263.757 39.4422 263.619 39.4422C262.856 39.4422 262.215 40.0661 262.215 40.8112V45.1433H260.985V40.2047C260.985 39.3903 260.898 38.9397 260.742 38.5238L261.938 38.2119C262.059 38.4718 262.163 38.9051 262.163 39.2516V39.3729C262.7 38.5931 263.272 38.2119 263.983 38.2119C264.139 38.2119 264.295 38.2292 264.399 38.2812L263.965 39.5116Z" fill="white"/>
<path d="M269.771 41.8328C269.771 43.4791 269.268 44.3108 268.194 44.3108C267.691 44.3108 267.172 44.0162 266.756 43.5657V40.1347C267.206 39.5975 267.761 39.3029 268.367 39.3029C269.424 39.3029 269.771 40.2213 269.771 41.8328ZM271.105 41.6942C271.105 39.3722 269.961 38.2632 268.575 38.2632C267.865 38.2632 267.189 38.5751 266.669 39.1989C266.669 38.6271 266.634 38.4365 266.582 38.2285L265.387 38.4365C265.491 38.8697 265.543 39.2856 265.543 40.0827V48.0018L266.756 47.7245V45.3505C266.756 45.1079 266.756 44.8134 266.721 44.6054C267.241 45.0733 267.847 45.2986 268.471 45.2986C270.187 45.2986 271.105 43.7736 271.105 41.6769V41.6942Z" fill="white"/>
<path d="M276.842 41.9207C276.842 43.6882 276.27 44.3987 275.334 44.3987C274.277 44.3987 273.757 43.7056 273.757 41.6608C273.757 39.9626 274.208 39.2001 275.265 39.2001C276.235 39.2001 276.842 39.8413 276.842 41.9207ZM278.228 41.8687C278.228 39.8413 277.258 38.2471 275.265 38.2471C273.497 38.2471 272.371 39.616 272.371 41.7994C272.371 43.9828 273.48 45.3691 275.282 45.3691C277.084 45.3691 278.211 44.0001 278.211 41.8687H278.228Z" fill="white"/>
<path d="M283.045 39.5116C282.924 39.4769 282.82 39.4422 282.699 39.4422C281.936 39.4422 281.295 40.0661 281.295 40.8112V45.1433H280.065V40.2047C280.065 39.3903 279.961 38.9397 279.805 38.5238L281 38.2119C281.122 38.4718 281.226 38.9051 281.226 39.2516V39.3729C281.763 38.5931 282.335 38.2119 283.045 38.2119C283.201 38.2119 283.357 38.2292 283.461 38.2812L283.028 39.5116H283.045Z" fill="white"/>
<path d="M287.862 41.8502L287.827 43.5657C287.515 44.1029 286.978 44.4495 286.406 44.4495C285.713 44.4495 285.349 44.0162 285.349 43.2884C285.349 42.8379 285.436 42.5953 285.696 42.3007C285.973 41.9888 286.528 41.8155 287.463 41.8155C287.567 41.8155 287.671 41.8155 287.862 41.8502ZM289.612 44.6054C289.092 44.2762 289.058 43.9123 289.058 42.9765C289.058 41.9888 289.11 40.9664 289.11 40.4812C289.11 39.8227 289.075 39.5975 288.971 39.3029C288.711 38.5924 288.001 38.2285 287.013 38.2285C285.713 38.2285 284.847 38.7484 284.188 39.1123L284.743 39.996C285.297 39.5801 286.112 39.2336 286.822 39.2336C287.758 39.2336 287.879 39.7708 287.879 40.5679V41.0184C287.706 41.0184 287.567 41.0184 287.412 41.0184C285.228 41.0184 283.98 41.8502 283.98 43.4097C283.98 44.7094 284.812 45.3852 286.164 45.3852C287.325 45.3852 287.897 44.7094 288.07 44.5014C288.226 44.9693 288.555 45.2986 288.971 45.4718L289.595 44.6401L289.612 44.6054Z" fill="white"/>
<path d="M293.84 39.304H292.506V43.3589C292.506 44.1907 292.714 44.4506 293.372 44.4506C293.598 44.4506 293.788 44.4159 293.996 44.312L294.135 45.0571C293.754 45.2477 293.355 45.3343 292.922 45.3343C292.489 45.3343 292.003 45.1957 291.778 44.9878C291.501 44.7278 291.276 44.6065 291.276 43.6188V39.2867H290.479V38.4203H291.276C291.276 37.9004 291.293 37.2073 291.362 36.7047L292.645 36.4102C292.593 36.8954 292.523 37.7445 292.523 38.4203H294.169L293.823 39.2867L293.84 39.304Z" fill="white"/>
<path d="M297.133 36.3581C297.133 35.8556 296.734 35.457 296.249 35.457C295.764 35.457 295.383 35.8556 295.383 36.3581C295.383 36.8606 295.764 37.2419 296.249 37.2419C296.734 37.2419 297.15 36.8433 297.15 36.3581H297.133ZM296.89 45.161V38.2643L295.608 38.4722V45.161H296.89Z" fill="white"/>
<path d="M303.041 41.9217C303.041 43.6892 302.469 44.3997 301.533 44.3997C300.476 44.3997 299.957 43.7065 299.957 41.6618C299.957 39.9636 300.407 39.2011 301.481 39.2011C302.452 39.2011 303.058 39.8423 303.058 41.9217H303.041ZM304.427 41.8697C304.427 39.8423 303.457 38.248 301.464 38.248C299.697 38.248 298.57 39.617 298.57 41.8004C298.57 43.9838 299.679 45.3701 301.481 45.3701C303.284 45.3701 304.41 44.0011 304.41 41.8697H304.427Z" fill="white"/>
<path d="M310.041 45.1599V40.6199C310.041 40.0134 309.989 39.8054 309.833 39.5801C309.695 39.4069 309.452 39.3029 309.14 39.3029C308.655 39.3029 307.927 39.6841 307.477 40.1693V45.1599H306.246V40.152C306.246 39.3549 306.177 39.043 305.986 38.5578L307.147 38.2285C307.303 38.5578 307.373 38.8523 307.373 39.2682C307.771 38.939 307.962 38.7657 308.256 38.6097C308.638 38.3845 309.088 38.2805 309.504 38.2805C310.214 38.2805 310.838 38.6617 311.081 39.2336C311.185 39.4762 311.237 39.7708 311.237 40.0827V45.1773H310.024L310.041 45.1599Z" fill="white"/>
<path d="M98.0449 28.9733V36.1646C98.0449 38.5386 96.0868 40.4794 93.6435 40.4794C91.2001 40.4794 89.242 38.556 89.242 36.1646V9.73863C89.242 7.36462 91.2001 5.42383 93.6435 5.42383C96.0868 5.42383 98.0449 7.34729 98.0449 9.73863V16.8433H110.625V16.0982C110.625 8.92419 111.093 0 93.6435 0C76.1936 0 76.6615 8.92419 76.6615 16.0982V29.8051C76.6615 36.9791 76.1763 45.9033 93.6435 45.9033C111.111 45.9033 110.625 36.9791 110.625 29.8051V28.9733H98.0449Z" fill="white"/>
<path d="M12.5805 0.917969H0V44.9151H12.5805V0.917969Z" fill="white"/>
<path d="M42.8714 44.9151L26.3746 22.8732L39.319 0.917969H25.9587L16.8093 16.8949C15.1631 19.7887 13.6728 23.3584 16.5147 27.4999L28.4714 44.9151H42.8887H42.8714Z" fill="white"/>
<path d="M63.7016 1.05664H51.1211V45.0537H63.7016V1.05664Z" fill="white"/>
</g>
<defs>
<clipPath id="clip0_23_562">
<rect width="315.016" height="48" fill="white"/>
</clipPath>
</defs>
</svg>
