<svg width="237" height="36" viewBox="0 0 237 36" fill="none" xmlns="http://www.w3.org/2000/svg">
<g clip-path="url(#clip0_23_86)">
<path d="M120.255 17.922V0.870768H123.726V6.19929H127.183V8.34369H123.726V17.935H120.255V17.922ZM115.746 5.48449C116.357 5.95236 116.824 6.53719 117.175 7.226C117.513 7.92781 117.682 8.6686 117.682 9.47438C117.682 10.917 117.162 12.1646 116.11 13.1913C115.07 14.2181 113.809 14.7379 112.328 14.7379C110.846 14.7379 109.624 14.2181 108.559 13.1913C107.493 12.1646 106.96 10.917 106.96 9.47438C106.96 8.6686 107.142 7.92781 107.506 7.226C107.87 6.5242 108.338 5.95236 108.936 5.48449H106.193V3.36607H110.586V0.61084H114.069V3.36607H118.462V5.48449H115.759H115.746ZM110.885 7.17402C110.456 7.81084 110.248 8.57763 110.248 9.47438C110.248 10.3711 110.469 11.1379 110.885 11.7877C111.314 12.4376 111.795 12.7625 112.328 12.7625C112.861 12.7625 113.354 12.4376 113.77 11.7877C114.186 11.1379 114.394 10.3711 114.394 9.47438C114.394 8.57763 114.186 7.81084 113.77 7.17402C113.354 6.53719 112.874 6.21228 112.328 6.21228C111.782 6.21228 111.301 6.53719 110.885 7.17402ZM113.549 21.8209H124.479V23.9394H112.471C111.782 23.9394 111.21 23.7184 110.755 23.2635C110.3 22.8217 110.066 22.1978 110.066 21.4181V16.4534H113.549V21.808V21.8209Z" fill="white"/>
<path d="M130.795 1.02661H145.598V6.0952C145.598 6.73203 145.52 7.42084 145.364 8.16163C145.195 8.90242 145 9.44827 144.753 9.77318H148.093V11.8916H139.932V15.6086H145.546V23.9782H142.089V17.727H130.743V15.6086H136.449V11.8916H128.469V9.77318H141.725C141.894 9.29231 142.011 8.73347 142.05 8.09665C142.102 7.47282 142.115 6.823 142.115 6.17318V3.13203H130.795V1.02661Z" fill="white"/>
<path d="M155.736 7.51197V9.5784H167.342V11.6968H154.658C153.93 11.6968 153.358 11.4629 152.916 10.995C152.474 10.5271 152.253 9.9293 152.253 9.17551V1.15674H167.108V3.27515H155.736V5.41955H167.03V7.51197H155.736ZM169.421 13.8672V15.9856H161.351V23.9914H157.868V15.9856H149.797V13.8672H169.421Z" fill="white"/>
<path d="M186.16 0.883766H189.591V6.65416L193.074 6.62817V8.77257H189.591V23.9654H186.16V0.883766Z" fill="white"/>
<path d="M213.687 12.9444H194.062V10.826H200.34V5.75737H203.823V10.826H213.687V12.9444ZM196.402 1.06567H211.231V5.69239C211.231 6.3812 211.14 7.096 210.945 7.84979C210.763 8.60358 210.542 9.11044 210.295 9.39636H207.293C207.488 8.91549 207.618 8.35665 207.67 7.73282C207.722 7.10899 207.761 6.45918 207.761 5.79636V3.19708H196.402V1.06567ZM207.982 15.8296C209.099 16.8693 209.658 18.1169 209.658 19.6115C209.658 21.1061 209.099 22.3278 207.982 23.3675C206.864 24.3942 205.512 24.914 203.927 24.914C202.341 24.914 200.977 24.3942 199.859 23.3675C198.741 22.3408 198.195 21.0801 198.195 19.6115C198.195 18.1429 198.754 16.8693 199.859 15.8296C200.977 14.8029 202.328 14.283 203.927 14.283C205.525 14.283 206.851 14.8029 207.982 15.8296ZM202.328 17.3761C201.899 18.026 201.678 18.7668 201.678 19.6115C201.678 20.4563 201.899 21.1581 202.328 21.7949C202.77 22.4187 203.303 22.7437 203.927 22.7437C204.551 22.7437 205.083 22.4317 205.512 21.7949C205.941 21.1581 206.149 20.4303 206.149 19.6115C206.149 18.7927 205.941 18.039 205.512 17.3761C205.083 16.7263 204.551 16.4014 203.927 16.4014C203.303 16.4014 202.757 16.7263 202.328 17.3761Z" fill="white"/>
<path d="M180.142 3.76886V6.01723C180.142 8.21362 180.675 10.0981 181.767 11.6447C182.637 12.8923 184.275 14.036 185.497 14.4259L183.794 16.0504C182.949 15.8165 181.728 15.0887 180.831 14.3479C179.804 13.4902 178.752 12.5674 178.388 11.5017C178.024 12.5544 176.971 13.4772 175.944 14.3479C175.048 15.0887 173.826 15.8165 172.981 16.0504L171.266 14.4259C172.5 14.036 174.125 12.8923 174.996 11.6447C176.087 10.0851 176.62 8.21362 176.62 6.01723V3.76886H172.565V1.63745H184.106V3.76886H180.116" fill="white"/>
<path d="M232.779 6.40723H236.262V8.52564H232.779V23.9654H229.322V0.883766H232.779V6.40723Z" fill="white"/>
<path d="M222.966 1.39062V6.01734C222.966 8.21373 223.499 10.0982 224.591 11.6448C225.474 12.8924 227.099 14.0361 228.321 14.426L226.618 16.0506C225.773 15.8166 224.552 15.0888 223.655 14.348C222.628 13.4903 221.576 12.5675 221.212 11.5018C220.848 12.5545 219.795 13.4773 218.768 14.348C217.885 15.0888 216.65 15.8166 215.805 16.0506L214.09 14.426C215.311 14.0361 216.949 12.8924 217.82 11.6448C218.911 10.0852 219.444 8.21373 219.444 6.01734V1.39062H222.953H222.966Z" fill="white"/>
<path d="M108.754 33.8686V26.9285H109.742V33.8686H108.754ZM112.211 26.9285H113.433L110.885 30.1516L113.511 33.8686H112.25L109.768 30.1646L112.198 26.9285H112.211Z" fill="white"/>
<path d="M117.201 31.4383C117.201 32.764 116.772 33.2968 116.057 33.2968C115.277 33.2968 114.887 32.777 114.887 31.2434C114.887 29.9697 115.212 29.3979 116.018 29.3979C116.746 29.3979 117.201 29.8788 117.201 31.4383ZM118.24 31.3994C118.24 29.8788 117.513 28.6831 116.018 28.6831C114.692 28.6831 113.848 29.7098 113.848 31.3474C113.848 32.9849 114.679 34.0246 116.031 34.0246C117.383 34.0246 118.227 32.9979 118.227 31.3994H118.24Z" fill="white"/>
<path d="M121.842 29.6317C121.751 29.6057 121.686 29.5797 121.582 29.5797C121.01 29.5797 120.529 30.0476 120.529 30.6064V33.8555H119.593V30.1516C119.593 29.5407 119.528 29.2028 119.398 28.8909L120.295 28.657C120.386 28.8519 120.464 29.1768 120.464 29.4368V29.5277C120.867 28.9429 121.296 28.657 121.829 28.657C121.946 28.657 122.063 28.67 122.141 28.709L121.816 29.6317H121.842Z" fill="white"/>
<path d="M125.701 30.8534H123.608C123.608 29.9436 123.959 29.3588 124.661 29.3588C124.986 29.3588 125.22 29.5147 125.389 29.7097C125.597 29.9566 125.701 30.3595 125.701 30.8404V30.8534ZM126.662 31.5422V31.3862C126.662 30.2295 126.493 29.6577 126.051 29.2028C125.7 28.8389 125.246 28.657 124.687 28.657C124.063 28.657 123.569 28.8779 123.166 29.3588C122.737 29.8786 122.568 30.4375 122.568 31.3082C122.568 32.9588 123.426 33.9725 124.817 33.9725C125.48 33.9725 126.064 33.7646 126.558 33.3227L126.207 32.7638C125.843 33.0888 125.441 33.2447 124.96 33.2447C124.479 33.2447 124.063 33.0498 123.803 32.6469C123.647 32.3999 123.595 32.075 123.595 31.6332V31.5162H126.675L126.662 31.5422Z" fill="white"/>
<path d="M130.588 31.3862L130.562 32.6728C130.328 33.0757 129.926 33.3356 129.51 33.3356C128.99 33.3356 128.704 33.0107 128.704 32.4649C128.704 32.127 128.782 31.945 128.964 31.7241C129.172 31.4901 129.588 31.3602 130.289 31.3602C130.367 31.3602 130.445 31.3602 130.588 31.3862ZM131.901 33.4526C131.511 33.2057 131.485 32.9327 131.485 32.2309C131.485 31.4901 131.524 30.7234 131.524 30.3595C131.524 29.8656 131.511 29.6966 131.433 29.4757C131.238 28.9428 130.705 28.6699 129.964 28.6699C128.99 28.6699 128.34 29.0598 127.846 29.3327L128.275 29.9956C128.691 29.6836 129.302 29.4237 129.835 29.4237C130.536 29.4237 130.627 29.8266 130.627 30.4244V30.7623C130.497 30.7623 130.393 30.7623 130.276 30.7623C128.639 30.7623 127.703 31.3862 127.703 32.5558C127.703 33.5306 128.327 34.0374 129.341 34.0374C130.211 34.0374 130.64 33.5306 130.77 33.3746C130.887 33.7255 131.134 33.9724 131.446 34.1024L131.914 33.4786L131.901 33.4526Z" fill="white"/>
<path d="M135.488 33.8685V26.9285H136.476V33.8685H135.488Z" fill="white"/>
<path d="M141.051 33.8685V30.4634C141.051 30.0086 141.012 29.8526 140.895 29.6836C140.791 29.5537 140.609 29.4757 140.375 29.4757C140.011 29.4757 139.465 29.7616 139.127 30.1255V33.8685H138.205V30.1125C138.205 29.5147 138.153 29.2808 138.01 28.9169L138.894 28.6699C139.01 28.9169 139.062 29.1378 139.062 29.4497C139.348 29.2028 139.504 29.0728 139.712 28.9558C140.011 28.7869 140.336 28.7089 140.648 28.7089C141.181 28.7089 141.662 28.9948 141.844 29.4237C141.922 29.6057 141.961 29.8266 141.961 30.0605V33.8815H141.038L141.051 33.8685Z" fill="white"/>
<path d="M145.443 33.9075H144.572L142.766 28.839L143.714 28.683L144.715 31.7371C144.819 32.0751 144.936 32.4779 145.014 32.8288H145.04C145.092 32.5299 145.196 32.127 145.339 31.7241L146.301 28.826H147.275L145.43 33.9205L145.443 33.9075Z" fill="white"/>
<path d="M150.823 30.8534H148.731C148.731 29.9436 149.082 29.3588 149.784 29.3588C150.108 29.3588 150.342 29.5148 150.511 29.7097C150.719 29.9566 150.823 30.3595 150.823 30.8404V30.8534ZM151.785 31.5422V31.3862C151.785 30.2296 151.616 29.6577 151.174 29.2028C150.823 28.839 150.368 28.657 149.81 28.657C149.186 28.657 148.692 28.8779 148.289 29.3588C147.86 29.8787 147.691 30.4375 147.691 31.3083C147.691 32.9588 148.549 33.9725 149.953 33.9725C150.602 33.9725 151.2 33.7646 151.694 33.3227L151.343 32.7639C150.979 33.0888 150.576 33.2447 150.108 33.2447C149.641 33.2447 149.212 33.0498 148.952 32.6469C148.796 32.4 148.744 32.0751 148.744 31.6332V31.5162H151.824L151.785 31.5422Z" fill="white"/>
<path d="M154.541 34.0114C153.93 34.0114 153.241 33.8165 152.656 33.4786L152.994 32.8158C153.475 33.0887 154.047 33.3226 154.619 33.3226C155.191 33.3226 155.554 32.9977 155.554 32.5038C155.554 32.075 155.295 31.815 154.71 31.7111L154.099 31.5941C153.306 31.4381 152.864 30.9443 152.864 30.1905C152.864 29.2677 153.605 28.6179 154.697 28.6179C155.308 28.6179 155.866 28.7869 156.282 29.0338L155.97 29.6836C155.502 29.4497 155.139 29.3197 154.736 29.3197C154.203 29.3197 153.865 29.6186 153.865 30.0735C153.865 30.4374 154.047 30.6324 154.58 30.7623L155.243 30.9183C156.165 31.1262 156.555 31.6591 156.555 32.3349C156.555 33.3486 155.749 34.0244 154.567 34.0244L154.541 34.0114Z" fill="white"/>
<path d="M159.713 29.4758H158.713V32.517C158.713 33.1408 158.869 33.3357 159.362 33.3357C159.531 33.3357 159.674 33.3098 159.843 33.2318L159.947 33.7906C159.661 33.9336 159.362 33.9986 159.038 33.9986C158.713 33.9986 158.336 33.8946 158.18 33.7386C157.972 33.5437 157.803 33.4527 157.803 32.7119V29.4628H157.205V28.813H157.803C157.803 28.4231 157.803 27.9033 157.868 27.5264L158.83 27.3054C158.791 27.6693 158.739 28.3061 158.739 28.813H159.973L159.726 29.4628L159.713 29.4758Z" fill="white"/>
<path d="M166.445 33.8686V30.2556C166.445 29.6837 166.263 29.4758 165.847 29.4758C165.379 29.4758 165.054 29.7747 164.664 30.1646V33.8686H163.754V30.2686C163.754 29.7097 163.598 29.4888 163.131 29.4888C162.78 29.4888 162.403 29.6577 161.974 30.0736V33.8556H161.051V30.1516C161.051 29.4368 161.012 29.2419 160.869 28.891L161.74 28.683C161.844 28.852 161.909 29.1119 161.909 29.3848C162.338 28.9299 162.858 28.67 163.326 28.67C163.793 28.67 164.274 28.9299 164.521 29.4758C165.028 28.9429 165.548 28.67 166.068 28.67C166.861 28.67 167.354 29.1639 167.354 30.0866V33.8556H166.432L166.445 33.8686Z" fill="white"/>
<path d="M171.786 30.8534H169.693C169.693 29.9436 170.044 29.3588 170.746 29.3588C171.071 29.3588 171.305 29.5147 171.474 29.7097C171.682 29.9566 171.786 30.3595 171.786 30.8404V30.8534ZM172.747 31.5422V31.3862C172.747 30.2295 172.579 29.6577 172.137 29.2028C171.786 28.8389 171.331 28.657 170.759 28.657C170.135 28.657 169.641 28.8779 169.238 29.3588C168.81 29.8786 168.641 30.4375 168.641 31.3082C168.641 32.9588 169.498 33.9725 170.902 33.9725C171.552 33.9725 172.15 33.7646 172.644 33.3227L172.293 32.7638C171.929 33.0888 171.526 33.2447 171.058 33.2447C170.59 33.2447 170.161 33.0498 169.901 32.6469C169.745 32.3999 169.693 32.075 169.693 31.6332V31.5162H172.773L172.747 31.5422Z" fill="white"/>
<path d="M176.96 33.8685V30.4634C176.96 30.0086 176.921 29.8526 176.804 29.6836C176.7 29.5537 176.531 29.4757 176.297 29.4757C175.933 29.4757 175.387 29.7616 175.049 30.1255V33.8685H174.127V30.1125C174.127 29.5147 174.075 29.2808 173.932 28.9169L174.815 28.6699C174.932 28.9169 174.984 29.1378 174.984 29.4497C175.27 29.2028 175.426 29.0728 175.634 28.9558C175.933 28.7869 176.258 28.7089 176.57 28.7089C177.103 28.7089 177.584 28.9948 177.766 29.4237C177.844 29.6057 177.883 29.8266 177.883 30.0605V33.8815H176.96V33.8685Z" fill="white"/>
<path d="M181.418 29.4758H180.417V32.517C180.417 33.1408 180.573 33.3357 181.08 33.3357C181.249 33.3357 181.392 33.3098 181.548 33.2318L181.665 33.7906C181.379 33.9336 181.08 33.9986 180.742 33.9986C180.404 33.9986 180.04 33.8946 179.884 33.7386C179.676 33.5437 179.507 33.4527 179.507 32.7119V29.4628H178.896V28.813H179.507C179.507 28.4231 179.507 27.9033 179.559 27.5264L180.521 27.3054C180.482 27.6693 180.43 28.3061 180.43 28.813H181.665L181.418 29.4628V29.4758Z" fill="white"/>
<path d="M187.603 33.9726C186.693 33.9726 185.978 33.5958 185.445 32.9329C184.951 32.2961 184.691 31.4643 184.691 30.4506C184.691 29.6449 184.847 28.943 185.146 28.3842C185.666 27.3965 186.576 26.7856 187.642 26.7856C188.291 26.7856 188.915 26.9806 189.344 27.3315L188.876 27.9683C188.499 27.6824 188.109 27.5654 187.642 27.5654C186.953 27.5654 186.42 27.9163 186.095 28.5661C185.874 29.008 185.77 29.5929 185.77 30.4246C185.77 31.2044 185.848 31.6593 186.017 32.0622C186.342 32.829 186.979 33.1929 187.72 33.1929C188.252 33.1929 188.629 33.0499 188.993 32.764L189.474 33.4008C188.941 33.7777 188.304 33.9726 187.603 33.9726Z" fill="white"/>
<path d="M193.555 31.4383C193.555 32.764 193.126 33.2968 192.411 33.2968C191.631 33.2968 191.229 32.777 191.229 31.2434C191.229 29.9697 191.566 29.3979 192.372 29.3979C193.1 29.3979 193.555 29.8788 193.555 31.4383ZM194.595 31.3994C194.595 29.8788 193.867 28.6831 192.385 28.6831C191.047 28.6831 190.215 29.7098 190.215 31.3474C190.215 32.9849 191.047 34.0246 192.398 34.0246C193.75 34.0246 194.595 32.9979 194.595 31.3994Z" fill="white"/>
<path d="M198.195 29.6317C198.104 29.6057 198.039 29.5797 197.935 29.5797C197.363 29.5797 196.882 30.0476 196.882 30.6064V33.8555H195.959V30.1516C195.959 29.5407 195.894 29.2028 195.777 28.8909L196.674 28.657C196.765 28.8519 196.843 29.1768 196.843 29.4368V29.5277C197.246 28.9429 197.675 28.657 198.208 28.657C198.325 28.657 198.442 28.67 198.52 28.709L198.195 29.6317Z" fill="white"/>
<path d="M202.55 31.3732C202.55 32.6078 202.173 33.2317 201.367 33.2317C200.99 33.2317 200.6 33.0107 200.288 32.6728V30.0995C200.626 29.6966 201.042 29.4757 201.497 29.4757C202.29 29.4757 202.55 30.1645 202.55 31.3732ZM203.551 31.2692C203.551 29.5277 202.693 28.6959 201.653 28.6959C201.12 28.6959 200.613 28.9299 200.223 29.3977C200.223 28.9688 200.197 28.8259 200.158 28.6699L199.262 28.8259C199.34 29.1508 199.379 29.4627 199.379 30.0605V35.9999L200.288 35.7919V34.0114C200.288 33.8295 200.288 33.6086 200.262 33.4526C200.652 33.8035 201.107 33.9724 201.575 33.9724C202.862 33.9724 203.551 32.8288 203.551 31.2562V31.2692Z" fill="white"/>
<path d="M207.851 31.4383C207.851 32.764 207.422 33.2968 206.72 33.2968C205.928 33.2968 205.538 32.777 205.538 31.2434C205.538 29.9697 205.876 29.3979 206.668 29.3979C207.396 29.3979 207.851 29.8788 207.851 31.4383ZM208.891 31.3994C208.891 29.8788 208.163 28.6831 206.668 28.6831C205.343 28.6831 204.498 29.7098 204.498 31.3474C204.498 32.9849 205.33 34.0246 206.681 34.0246C208.033 34.0246 208.878 32.9979 208.878 31.3994H208.891Z" fill="white"/>
<path d="M212.504 29.6317C212.413 29.6057 212.335 29.5797 212.244 29.5797C211.673 29.5797 211.192 30.0476 211.192 30.6065V33.8556H210.269V30.1516C210.269 29.5408 210.191 29.2029 210.074 28.8909L210.971 28.657C211.062 28.8519 211.14 29.1769 211.14 29.4368V29.5278C211.543 28.9429 211.971 28.657 212.504 28.657C212.621 28.657 212.738 28.67 212.816 28.709L212.491 29.6317H212.504Z" fill="white"/>
<path d="M216.118 31.3862L216.092 32.6728C215.858 33.0757 215.455 33.3356 215.027 33.3356C214.507 33.3356 214.234 33.0107 214.234 32.4649C214.234 32.127 214.299 31.945 214.494 31.7241C214.702 31.4901 215.117 31.3602 215.819 31.3602C215.897 31.3602 215.975 31.3602 216.118 31.3862ZM217.431 33.4526C217.041 33.2057 217.015 32.9327 217.015 32.2309C217.015 31.4901 217.054 30.7234 217.054 30.3595C217.054 29.8656 217.028 29.6966 216.95 29.4757C216.755 28.9428 216.222 28.6699 215.481 28.6699C214.507 28.6699 213.857 29.0598 213.363 29.3327L213.779 29.9956C214.195 29.6836 214.806 29.4237 215.338 29.4237C216.04 29.4237 216.131 29.8266 216.131 30.4244V30.7623C216.001 30.7623 215.897 30.7623 215.78 30.7623C214.143 30.7623 213.207 31.3862 213.207 32.5558C213.207 33.5306 213.831 34.0374 214.845 34.0374C215.715 34.0374 216.144 33.5306 216.274 33.3746C216.391 33.7255 216.638 33.9724 216.95 34.1024L217.418 33.4786L217.431 33.4526Z" fill="white"/>
<path d="M220.601 29.4758H219.601V32.517C219.601 33.1408 219.757 33.3357 220.25 33.3357C220.419 33.3357 220.562 33.3098 220.718 33.2318L220.822 33.7906C220.536 33.9336 220.237 33.9986 219.913 33.9986C219.588 33.9986 219.224 33.8946 219.055 33.7386C218.847 33.5437 218.678 33.4527 218.678 32.7119V29.4628H218.08V28.813H218.678C218.678 28.4231 218.691 27.9033 218.743 27.5264L219.705 27.3054C219.666 27.6693 219.614 28.3061 219.614 28.813H220.848L220.588 29.4628L220.601 29.4758Z" fill="white"/>
<path d="M223.071 27.2665C223.071 26.8896 222.772 26.5906 222.408 26.5906C222.044 26.5906 221.758 26.8896 221.758 27.2665C221.758 27.6433 222.044 27.9293 222.408 27.9293C222.772 27.9293 223.084 27.6304 223.084 27.2665H223.071ZM222.889 33.8686V28.6961L221.927 28.852V33.8686H222.889Z" fill="white"/>
<path d="M227.502 31.4383C227.502 32.764 227.073 33.2968 226.371 33.2968C225.578 33.2968 225.188 32.777 225.188 31.2434C225.188 29.9697 225.526 29.3979 226.332 29.3979C227.06 29.3979 227.515 29.8788 227.515 31.4383H227.502ZM228.541 31.3994C228.541 29.8788 227.813 28.6831 226.319 28.6831C224.993 28.6831 224.148 29.7098 224.148 31.3474C224.148 32.9849 224.98 34.0246 226.332 34.0246C227.683 34.0246 228.528 32.9979 228.528 31.3994H228.541Z" fill="white"/>
<path d="M232.752 33.8685V30.4634C232.752 30.0086 232.713 29.8526 232.596 29.6836C232.492 29.5537 232.31 29.4757 232.076 29.4757C231.712 29.4757 231.167 29.7616 230.829 30.1255V33.8685H229.906V30.1125C229.906 29.5147 229.854 29.2808 229.711 28.9169L230.582 28.6699C230.699 28.9169 230.751 29.1378 230.751 29.4497C231.05 29.2028 231.193 29.0728 231.413 28.9558C231.699 28.7869 232.037 28.7089 232.349 28.7089C232.882 28.7089 233.35 28.9948 233.532 29.4237C233.61 29.6057 233.649 29.8266 233.649 30.0605V33.8815H232.739L232.752 33.8685Z" fill="white"/>
<path d="M73.5347 21.73V27.1235C73.5347 28.904 72.0661 30.3596 70.2336 30.3596C68.4011 30.3596 66.9325 28.917 66.9325 27.1235V7.30397C66.9325 5.52347 68.4011 4.06787 70.2336 4.06787C72.0661 4.06787 73.5347 5.51047 73.5347 7.30397V12.6325H82.9701V12.0736C82.9701 6.69314 83.321 0 70.2336 0C57.1462 0 57.4971 6.69314 57.4971 12.0736V22.3538C57.4971 27.7343 57.1332 34.4274 70.2336 34.4274C83.334 34.4274 82.9701 27.7343 82.9701 22.3538V21.73H73.5347Z" fill="white"/>
<path d="M9.43554 0.688808H0.000137329V33.6866H9.43554V0.688808Z" fill="white"/>
<path d="M32.1542 33.6866L19.7816 17.1552L29.4899 0.688808H19.4697L12.6076 12.6715C11.3729 14.8419 10.2552 17.5191 12.3866 20.6253L21.3542 33.6866H32.1672H32.1542Z" fill="white"/>
<path d="M47.7754 0.792812H38.34V33.7906H47.7754V0.792812Z" fill="white"/>
</g>
<defs>
<clipPath id="clip0_23_86">
<rect width="236.262" height="36" fill="white"/>
</clipPath>
</defs>
</svg>
