<svg width="48" height="48" viewBox="0 0 48 48" fill="none" xmlns="http://www.w3.org/2000/svg">
<g clip-path="url(#clip0_1879_491)">
<path d="M37.2896 14.1699H46.9996V36.1499H41.4896L33.4496 41.0599L33.4296 36.1499H30.7996H14.5996" stroke="#121212" stroke-width="2" stroke-miterlimit="10"/>
<path d="M33.4 28.9304V6.94043H1V28.9304H6.51L6.45 33.8304L14.57 28.9304H17.2H33.4Z" stroke="#121212" stroke-width="2" stroke-miterlimit="10"/>
<path d="M43.4401 20.3904H38.3301" stroke="#121212" stroke-width="2" stroke-miterlimit="10"/>
<path d="M43.4401 24.8308H38.3301" stroke="#121212" stroke-width="2" stroke-miterlimit="10"/>
<path d="M43.4401 29.28H38.3301" stroke="#121212" stroke-width="2" stroke-miterlimit="10"/>
<path d="M9.66086 19.7299C10.6439 19.7299 11.4409 18.933 11.4409 17.9499C11.4409 16.9669 10.6439 16.1699 9.66086 16.1699C8.67779 16.1699 7.88086 16.9669 7.88086 17.9499C7.88086 18.933 8.67779 19.7299 9.66086 19.7299Z" fill="#121212"/>
<path d="M17.3093 19.7299C18.2924 19.7299 19.0893 18.933 19.0893 17.9499C19.0893 16.9669 18.2924 16.1699 17.3093 16.1699C16.3262 16.1699 15.5293 16.9669 15.5293 17.9499C15.5293 18.933 16.3262 19.7299 17.3093 19.7299Z" fill="#121212"/>
<path d="M24.8796 19.7299C25.8627 19.7299 26.6596 18.933 26.6596 17.9499C26.6596 16.9669 25.8627 16.1699 24.8796 16.1699C23.8965 16.1699 23.0996 16.9669 23.0996 17.9499C23.0996 18.933 23.8965 19.7299 24.8796 19.7299Z" fill="#121212"/>
</g>
<defs>
<clipPath id="clip0_1879_491">
<rect width="48" height="48" fill="white"/>
</clipPath>
</defs>
</svg>
