<svg width="48" height="48" viewBox="0 0 48 48" fill="none" xmlns="http://www.w3.org/2000/svg">
<g clip-path="url(#clip0_1879_470)">
<path d="M22.3906 42.0699H19.13H4V7.62988H12.78" stroke="#121212" stroke-width="2" stroke-miterlimit="10"/>
<path d="M28.4902 7.62988H36.7802V20.3099V24.23" stroke="#121212" stroke-width="2" stroke-miterlimit="10"/>
<path d="M12.7793 4.41V10.17H28.4893V4.41H24.0993C24.0993 4.41 23.8993 1 20.6393 1C17.3793 1 17.3093 4.41 17.3093 4.41H12.7893H12.7793Z" stroke="#121212" stroke-width="2" stroke-miterlimit="10"/>
<path d="M8 18H24" stroke="#121212" stroke-width="2" stroke-miterlimit="10"/>
<path d="M7.89062 26.2305H15.8906" stroke="#121212" stroke-width="2" stroke-miterlimit="10"/>
<path d="M7.89062 33.2305H11.8906" stroke="#121212" stroke-width="2" stroke-miterlimit="10"/>
<path d="M26.8906 38.2305C31.3089 38.2305 34.8906 34.6487 34.8906 30.2305C34.8906 25.8122 31.3089 22.2305 26.8906 22.2305C22.4723 22.2305 18.8906 25.8122 18.8906 30.2305C18.8906 34.6487 22.4723 38.2305 26.8906 38.2305Z" stroke="#121212" stroke-width="2" stroke-miterlimit="10"/>
<path d="M32 36.4141L33.4142 34.9998L41.8995 43.4851L40.4853 44.8993L32 36.4141Z" fill="#121212"/>
</g>
<defs>
<clipPath id="clip0_1879_470">
<rect width="48" height="48" fill="white"/>
</clipPath>
</defs>
</svg>
