<svg width="260" height="37" viewBox="0 0 260 37" fill="none" xmlns="http://www.w3.org/2000/svg">
<rect y="36" width="260" height="1" fill="white"/>
<path d="M9.432 13.08L7.974 12.918C8.352 11.064 8.406 9.678 8.406 8.652H1.818V7.446H9.846V8.292C9.846 9.354 9.846 10.956 9.432 13.08ZM10.962 14.052L11.07 15.132C7.722 15.69 3.852 15.78 0.99 15.78L0.846 14.574C1.872 14.574 3.042 14.556 4.266 14.538V11.046H5.724V14.484C7.488 14.412 9.324 14.268 10.962 14.052ZM4.788 17.238V20.766H14.04V21.972H3.312V17.238H4.788ZM13.518 11.442H15.822V12.666H13.518V18.354H12.042V6.186H13.518V11.442ZM29.3206 18.066V13.728H26.1886V12.522H29.3206V10.11H26.1886V8.922H29.3206V6.204H30.8146V18.066H29.3206ZM26.0626 14.286L26.2066 15.492C24.1546 15.852 22.4626 15.906 19.3486 15.906H18.1786V10.902H23.6326V8.526H18.1426V7.338H25.1086V12.054H19.6366V14.7C22.5166 14.7 24.1366 14.628 26.0626 14.286ZM21.8326 20.712H31.3006V21.9H20.3566V17.202H21.8326V20.712ZM35.0252 7.932H42.5852C42.5852 12.594 40.4432 16.698 35.0792 19.326L34.2872 18.12C38.6252 16.05 40.7852 12.954 41.0912 9.12H35.0252V7.932ZM45.8432 6.186H47.3192V22.332H45.8432V6.186ZM59.1078 13.08L57.6498 12.918C58.0278 11.064 58.0818 9.678 58.0818 8.652H51.4938V7.446H59.5218V8.292C59.5218 9.354 59.5218 10.956 59.1078 13.08ZM60.6378 14.052L60.7458 15.132C57.3978 15.69 53.5278 15.78 50.6658 15.78L50.5218 14.574C51.5478 14.574 52.7178 14.556 53.9418 14.538V11.046H55.3998V14.484C57.1638 14.412 58.9998 14.268 60.6378 14.052ZM54.4638 17.238V20.766H63.7158V21.972H52.9878V17.238H54.4638ZM63.1938 11.442H65.4978V12.666H63.1938V18.354H61.7178V6.186H63.1938V11.442Z" fill="white"/>
<line y1="-0.5" x2="7.12551" y2="-0.5" transform="matrix(0.701705 -0.712467 0.701705 0.712467 248 16.0771)" stroke="white"/>
<line y1="-0.5" x2="7.12551" y2="-0.5" transform="matrix(0.701705 0.712467 -0.701705 0.712467 243 11.001)" stroke="white"/>
</svg>
