<svg width="260" height="37" viewBox="0 0 260 37" fill="none" xmlns="http://www.w3.org/2000/svg">
<rect y="35.9951" width="260" height="1" fill="white"/>
<path d="M6.3 16.8191V9.22312H2.916V16.8191H6.3ZM10.062 12.2651V6.54112H11.466V21.5171H10.062V13.4891H7.668V17.9891H1.53V8.05312H7.668V12.2651H10.062ZM13.266 6.18112H14.67V22.3091H13.266V6.18112ZM30.3826 11.6351V12.8231H19.3666V7.00912H20.8426V11.6351H30.3826ZM32.1106 15.1451V16.3691H28.3306V22.3271H26.8546V16.3691H22.7506V22.3271H21.2926V16.3691H17.5126V15.1451H32.1106ZM46.6646 10.6451H49.9046V6.19912H51.3986V18.0251H49.9046V11.8511H46.6646V10.6451ZM47.6186 14.4431L46.8806 15.5951C45.0806 14.9471 43.6946 13.5971 42.9926 11.9411C42.2906 13.7771 40.8146 15.2711 38.9246 15.9551L38.1506 14.8031C40.5446 13.9391 42.2186 11.7971 42.2186 9.51112V8.70112H38.6186V7.49512H47.2406V8.70112H43.6946V9.49312C43.6946 11.5991 45.2786 13.6151 47.6186 14.4431ZM42.5606 20.7611H51.8486V21.9671H41.0666V16.9811H42.5606V20.7611ZM59.3532 10.3751V11.1491C59.3532 13.7231 60.6492 16.3871 62.8272 17.5571L61.9812 18.6731C60.4152 17.7911 59.2632 16.1531 58.6692 14.2091C58.1112 16.2611 56.9772 18.0611 55.3932 19.0151L54.5292 17.9171C56.7072 16.6211 57.9492 13.7951 57.9492 11.1491V10.3751H54.9612V9.15112H57.9492V6.75712H59.3712V9.15112H62.3412V10.3751H59.3532ZM63.7092 12.5531V6.55912H65.1132V21.4811H63.7092V13.7771H61.2432V12.5531H63.7092ZM66.9492 6.18112H68.3712V22.3091H66.9492V6.18112ZM74.3998 11.4191V14.3891H82.6438V11.4191H74.3998ZM79.2598 19.0511H85.8478V20.2571H71.2138V19.0511H77.7658V15.5771H72.9418V7.33312H74.3998V10.2131H82.6438V7.33312H84.0838V15.5771H79.2598V19.0511ZM88.7264 7.92712H96.2864C96.2864 12.5891 94.1444 16.6931 88.7804 19.3211L87.9884 18.1151C92.3264 16.0451 94.4864 12.9491 94.7924 9.11512H88.7264V7.92712ZM99.5444 6.18112H101.02V22.3271H99.5444V6.18112Z" fill="white"/>
<line y1="-0.5" x2="7.12551" y2="-0.5" transform="matrix(-0.701705 0.712467 -0.701705 -0.712467 248 9.92285)" stroke="white"/>
<line y1="-0.5" x2="7.12551" y2="-0.5" transform="matrix(-0.701705 -0.712467 0.701705 -0.712467 253 14.999)" stroke="white"/>
</svg>
