<svg width="94" height="26" viewBox="0 0 94 26" fill="none" xmlns="http://www.w3.org/2000/svg">
<path opacity="0.5" d="M1.746 21V7.734H9.576V9.498H3.834V13.188H8.694V14.952H3.834V19.236H9.774V21H1.746ZM12.539 21V7.734H14.681L19.073 15.528L20.459 18.336H20.549C20.441 16.968 20.279 15.366 20.279 13.926V7.734H22.259V21H20.117L15.725 13.188L14.339 10.416H14.249C14.357 11.784 14.519 13.314 14.519 14.754V21H12.539ZM31.1577 21.234C27.6297 21.234 25.0377 18.75 25.0377 14.412C25.0377 10.092 27.7017 7.5 31.2117 7.5C33.0837 7.5 34.3437 8.328 35.1537 9.174L34.0377 10.506C33.3717 9.84 32.5617 9.318 31.2837 9.318C28.8177 9.318 27.1797 11.226 27.1797 14.34C27.1797 17.49 28.6377 19.416 31.3737 19.416C32.1837 19.416 32.9937 19.182 33.4617 18.768V15.654H30.8337V13.944H35.3517V19.686C34.4697 20.568 32.9757 21.234 31.1577 21.234Z" fill="#CCCCCC"/>
<line x1="47.5" y1="7" x2="47.5" y2="19" stroke="#CCCCCC"/>
<path d="M58.746 21V7.734H60.834V14.016H60.888L65.928 7.734H68.25L64.146 12.864L68.934 21H66.612L62.868 14.502L60.834 17.004V21H58.746ZM75.2645 21.234C71.8625 21.234 69.5045 18.588 69.5045 14.322C69.5045 10.056 71.8625 7.5 75.2645 7.5C78.6665 7.5 81.0425 10.056 81.0425 14.322C81.0425 18.588 78.6665 21.234 75.2645 21.234ZM75.2645 19.416C77.4605 19.416 78.9005 17.418 78.9005 14.322C78.9005 11.208 77.4605 9.318 75.2645 9.318C73.0685 9.318 71.6465 11.208 71.6465 14.322C71.6465 17.418 73.0685 19.416 75.2645 19.416ZM83.7948 21V7.734H88.1328C90.8688 7.734 92.9208 8.724 92.9208 11.586C92.9208 13.638 91.8228 14.862 90.1488 15.384L93.3888 21H91.0308L88.0248 15.654H85.8828V21H83.7948ZM85.8828 13.98H87.8808C89.8068 13.98 90.8508 13.188 90.8508 11.586C90.8508 9.984 89.8068 9.426 87.8808 9.426H85.8828V13.98Z" fill="#121212"/>
<path d="M57 23.7H93.8568V24.6H57V23.7Z" fill="#121212"/>
</svg>
