<svg width="94" height="26" viewBox="0 0 94 26" fill="none" xmlns="http://www.w3.org/2000/svg">
<path opacity="0.5" d="M1.746 21V7.734H9.576V9.498H3.834V13.188H8.694V14.952H3.834V19.236H9.774V21H1.746ZM12.359 21V7.734H14.501L18.893 15.528L20.279 18.336H20.369C20.261 16.968 20.099 15.366 20.099 13.926V7.734H22.079V21H19.937L15.545 13.188L14.159 10.416H14.069C14.177 11.784 14.339 13.314 14.339 14.754V21H12.359ZM30.7977 21.234C27.2697 21.234 24.6777 18.75 24.6777 14.412C24.6777 10.092 27.3417 7.5 30.8517 7.5C32.7237 7.5 33.9837 8.328 34.7937 9.174L33.6777 10.506C33.0117 9.84 32.2017 9.318 30.9237 9.318C28.4577 9.318 26.8197 11.226 26.8197 14.34C26.8197 17.49 28.2777 19.416 31.0137 19.416C31.8237 19.416 32.6337 19.182 33.1017 18.768V15.654H30.4737V13.944H34.9917V19.686C34.1097 20.568 32.6157 21.234 30.7977 21.234Z" fill="white"/>
<line x1="47.5" y1="7" x2="47.5" y2="19" stroke="white"/>
<path d="M58.746 21V7.734H60.834V14.016H60.888L65.928 7.734H68.25L64.146 12.864L68.934 21H66.612L62.868 14.502L60.834 17.004V21H58.746ZM75.0845 21.234C71.6825 21.234 69.3245 18.588 69.3245 14.322C69.3245 10.056 71.6825 7.5 75.0845 7.5C78.4865 7.5 80.8625 10.056 80.8625 14.322C80.8625 18.588 78.4865 21.234 75.0845 21.234ZM75.0845 19.416C77.2805 19.416 78.7205 17.418 78.7205 14.322C78.7205 11.208 77.2805 9.318 75.0845 9.318C72.8885 9.318 71.4665 11.208 71.4665 14.322C71.4665 17.418 72.8885 19.416 75.0845 19.416ZM83.4348 21V7.734H87.7728C90.5088 7.734 92.5608 8.724 92.5608 11.586C92.5608 13.638 91.4628 14.862 89.7888 15.384L93.0288 21H90.6708L87.6648 15.654H85.5228V21H83.4348ZM85.5228 13.98H87.5208C89.4468 13.98 90.4908 13.188 90.4908 11.586C90.4908 9.984 89.4468 9.426 87.5208 9.426H85.5228V13.98Z" fill="white"/>
<path d="M57 23.7H93.4968V24.6H57V23.7Z" fill="white"/>
</svg>
